
<svg viewBox="0 0 200 30" version="1.1" xmlns="http://www.w3.org/2000/svg" xmlns:xlink="http://www.w3.org/1999/xlink" aria-hidden="true" role="img" fill="red" class="default-ltr-cache-1d568uk ev1dnif2"><g><path d="M191.5,14.3 L200,30 C197.5,29.7 195,29.4 192.5,29.2 L188.5,20.5 L184.5,28.4 C182.5,28.1 180.5,28 178.5,27.8 L185.5,14.1 L179,0 L184.5,0 L188,7.9 L191.5,0 L200,0 L191.5,14.3 Z M173.5,0 L168,0 L168,27.2 C170,27.3 172,27.4 173.5,27.6 L173.5,0 Z M162.5,26.9 C156.5,26.7 150.5,26.4 144.5,26.3 L144.5,0 L150.5,0 L150.5,21.9 C154.5,22 158.5,22.2 162.5,22.3 L162.5,26.9 Z M123.5,10.7 L123.5,15.3 L116,15.3 L116,26 L111,26 L111,0 L126,0 L126,4.7 L116,4.7 L116,10.7 L123.5,10.7 Z M87.5,4.7 L87.5,26.2 C85.5,26.2 83.5,26.2 82,26.3 L82,4.7 L76,4.7 L76,0 L92.5,0 L92.5,4.7 L87.5,4.7 Z M59.5,15.6 C56.5,15.6 53.5,15.6 51.5,15.7 L51.5,22.7 C55.5,22.5 58.5,22.2 62.5,22.2 L62.5,26.7 L46,27.7 L46,0 L62.5,0 L62.5,4.7 L51.5,4.7 L51.5,11 C54.5,11 58.5,10.9 59.5,10.9 L59.5,15.6 Z M9.5,13 L9.5,29.3 C7.5,29.5 6,29.7 4.5,30 L4.5,0 L9.5,0 L16.5,17 L16.5,0 L21.5,0 L21.5,28.1 C19,28.3 17,28.4 15,28.7 L9.5,13 Z M0,0 L0,30 L4.5,30 L4.5,0 L0,0 Z"></path></g></svg>
